<?xml version="1.0" encoding="UTF-8"?><svg id="Ebene_2" xmlns="http://www.w3.org/2000/svg" viewBox="0 0 26.67 26.67"><defs><style>.cls-1{stroke:#b2b2b2;stroke-miterlimit:10;stroke-width:.5px;}.cls-1,.cls-2{fill:#fff;}.cls-3{fill:#b2b2b2;}.cls-3,.cls-2{stroke-width:0px;}</style></defs><g id="Ebene_1-2"><circle class="cls-1" cx="13.33" cy="13.33" r="13.08"/><path class="cls-3" d="M17,10.73h-.58v-1.17c0-1.71-1.39-3.1-3.1-3.1s-3.1,1.39-3.1,3.1h.01v1.17h-.57c-.69,0-1.25.56-1.25,1.25v4.99c0,.69.56,1.25,1.25,1.25h7.34c.69,0,1.25-.56,1.25-1.25v-4.99c0-.69-.56-1.25-1.25-1.25ZM11.22,9.55c0-1.16.94-2.1,2.1-2.1s2.1.94,2.1,2.1v1.17h-4.19v-1.17h-.01Z"/><path class="cls-2" d="M12.96,16.69l-1.75-2.47c-.16-.22-.11-.54.12-.7.22-.16.54-.11.7.12l.98,1.38,2.31-2.91c.17-.21.49-.25.7-.08.22.17.25.49.08.7l-3.14,3.95Z"/></g></svg>