<?xml version="1.0" encoding="UTF-8"?><svg id="Ebene_2" xmlns="http://www.w3.org/2000/svg" viewBox="0 0 27.17 27.17"><defs><style>.cls-1{fill:#9d9d9c;stroke-width:0px;}.cls-2{fill:none;stroke:#fbbc29;stroke-miterlimit:10;}</style></defs><g id="Ebene_1-2"><circle class="cls-2" cx="13.58" cy="13.58" r="13.08"/><path class="cls-1" d="M13.51,10.8c.82-.88,1.63-1.77,2.45-2.65.2-.21.48-.24.72-.09.22.14.31.43.21.67-.04.09-.11.18-.18.26-.96,1.04-1.92,2.08-2.88,3.12-.19.21-.22.35-.08.48.14.14.3.1.49-.11,1.08-1.17,2.17-2.34,3.25-3.51.07-.08.15-.15.24-.2.23-.13.52-.07.69.14.17.21.17.49,0,.7-.04.05-.09.1-.13.15-1.13,1.22-2.26,2.44-3.38,3.66-.03.03-.06.06-.09.1-.14.16-.14.32,0,.44.13.11.28.09.42-.06.75-.81,1.5-1.62,2.25-2.43.18-.19.35-.39.53-.57.21-.21.53-.24.75-.06.21.16.28.46.15.7-.03.07-.09.13-.14.18-1.02,1.1-2.04,2.21-3.06,3.31-.04.04-.08.08-.11.13-.08.13-.05.28.06.37.11.09.25.08.36-.01.03-.03.06-.06.09-.1.53-.58,1.06-1.15,1.6-1.73.25-.27.58-.3.82-.08.25.22.25.57,0,.84-1.31,1.42-2.62,2.84-3.94,4.26-.96,1.04-2.65,1.26-3.9.52-.19-.11-.37-.24-.54-.39-.43-.39-.87-.78-1.28-1.2-.59-.61-.88-1.36-.86-2.2,0-.48.05-.96.12-1.43.15-1.04.33-2.07.49-3.11.05-.31.23-.4.5-.24.45.26.69.65.72,1.17.02.4.03.81.05,1.21.01.3.13.52.42.63.29.11.53.01.73-.2.81-.88,1.63-1.76,2.44-2.64Z"/></g></svg>