<?xml version="1.0" encoding="UTF-8"?>
<svg id="Ebene_2" xmlns="http://www.w3.org/2000/svg" version="1.1" viewBox="0 0 26.67 26.67">
  <!-- Generator: Adobe Illustrator 30.1.0, SVG Export Plug-In . SVG Version: 2.1.1 Build 136)  -->
  <defs>
    <style>
      .st0 {
        stroke-miterlimit: 10;
      }

      .st0, .st1 {
        fill: #fff;
      }

      .st0, .st2 {
        stroke: #b2b2b2;
        stroke-width: .5px;
      }

      .st2 {
        fill: none;
        stroke-linecap: round;
        stroke-linejoin: round;
      }
    </style>
  </defs>
  <circle class="st0" cx="13.33" cy="13.33" r="13.08"/>
  <path class="st1" d="M11.57,17.8c.21,0,.39-.15.39-.34v-2.91c0-.19-.17-.34-.39-.34s-.39.15-.39.34v2.91c0,.19.17.34.39.34Z"/>
  <path class="st1" d="M8.48,17.8c.21,0,.39-.15.39-.34v-2.91c0-.19-.17-.34-.39-.34s-.39.15-.39.34v2.91c0,.19.17.34.39.34Z"/>
  <path class="st1" d="M10.02,17.8c.21,0,.39-.15.39-.34v-3.85c0-.19-.17-.34-.39-.34s-.39.15-.39.34v3.85c0,.19.17.34.39.34Z"/>
  <path class="st1" d="M14.66,17.8c.21,0,.39-.15.39-.34v-3.85c0-.19-.17-.34-.39-.34s-.39.15-.39.34v3.85c0,.19.17.34.39.34Z"/>
  <path class="st1" d="M13.11,17.8c.21,0,.39-.15.39-.34v-4.79c0-.19-.17-.34-.39-.34s-.39.15-.39.34v4.79c0,.19.17.34.39.34Z"/>
  <path class="st1" d="M17.75,17.8c.21,0,.39-.15.39-.34v-6.67c0-.19-.17-.34-.39-.34s-.39.15-.39.34v6.67c0,.19.17.34.39.34Z"/>
  <path class="st1" d="M16.2,17.8c.21,0,.39-.15.39-.34v-5.73c0-.19-.17-.34-.39-.34s-.39.15-.39.34v5.73c0,.19.17.34.39.34Z"/>
  <path class="st2" d="M18.8,11.97c-.29-.37-.86-.46-1.26-.19l-.98.66-2.06-1.33c-.1-.06-.2-.11-.32-.13l-2.23-.47c-.22-.05-.45-.01-.64.09l-3.18,1.67c-.26.14-.43.39-.46.67l-.18,2.26c-.04.46.34.86.84.9.08,0,.17,0,.25-.01.39-.07.69-.38.72-.76l.14-1.81,1.86-.98-.28,2.68-.63,3.05-2.85.54c-.49.09-.8.54-.7.99.1.45.58.75,1.07.65l3.44-.65c.36-.07.64-.33.71-.66l.49-2.38,2.36,1.41.56,2.53c.1.45.58.75,1.07.65.49-.09.8-.54.7-.99l-.63-2.87c-.05-.22-.19-.41-.4-.54l-2.61-1.56.24-2.66,2.23,1.45c.31.2.74.2,1.05,0l1.5-1.01c.4-.27.49-.79.2-1.17Z"/>
  <ellipse class="st2" cx="13.56" cy="8.42" rx="1.69" ry="1.56"/>
  <path class="st2" d="M20.82,5.04c0,.71-.62,1.28-1.38,1.28"/>
  <path class="st2" d="M22.2,5.04c0,1.41-1.24,2.56-2.76,2.56"/>
</svg>