<?xml version="1.0" encoding="UTF-8"?><svg id="Ebene_2" xmlns="http://www.w3.org/2000/svg" viewBox="0 0 26.67 26.67"><defs><style>.cls-1{stroke:#b2b2b2;stroke-miterlimit:10;stroke-width:.5px;}.cls-1,.cls-2{fill:#fff;}.cls-3{fill:#b2b2b2;}.cls-3,.cls-2{stroke-width:0px;}</style></defs><g id="Ebene_1-2"><circle class="cls-1" cx="13.33" cy="13.33" r="13.08"/><path class="cls-3" d="M20.26,8.69H5.97c-.21,0-.39.15-.39.34v9.79c0,.19.17.34.39.34h14.29c.21,0,.39-.15.39-.34v-9.79c0-.19-.17-.34-.39-.34Z"/><path class="cls-2" d="M11.57,17.8c.21,0,.39-.15.39-.34v-2.91c0-.19-.17-.34-.39-.34s-.39.15-.39.34v2.91c0,.19.17.34.39.34Z"/><path class="cls-2" d="M8.48,17.8c.21,0,.39-.15.39-.34v-2.91c0-.19-.17-.34-.39-.34s-.39.15-.39.34v2.91c0,.19.17.34.39.34Z"/><path class="cls-2" d="M10.02,17.8c.21,0,.39-.15.39-.34v-3.85c0-.19-.17-.34-.39-.34s-.39.15-.39.34v3.85c0,.19.17.34.39.34Z"/><path class="cls-2" d="M14.66,17.8c.21,0,.39-.15.39-.34v-3.85c0-.19-.17-.34-.39-.34s-.39.15-.39.34v3.85c0,.19.17.34.39.34Z"/><path class="cls-2" d="M13.11,17.8c.21,0,.39-.15.39-.34v-4.79c0-.19-.17-.34-.39-.34s-.39.15-.39.34v4.79c0,.19.17.34.39.34Z"/><path class="cls-2" d="M17.75,17.8c.21,0,.39-.15.39-.34v-6.67c0-.19-.17-.34-.39-.34s-.39.15-.39.34v6.67c0,.19.17.34.39.34Z"/><path class="cls-2" d="M16.2,17.8c.21,0,.39-.15.39-.34v-5.73c0-.19-.17-.34-.39-.34s-.39.15-.39.34v5.73c0,.19.17.34.39.34Z"/></g></svg>