<?xml version="1.0" encoding="UTF-8"?><svg id="Ebene_2" xmlns="http://www.w3.org/2000/svg" viewBox="0 0 27.17 27.17"><defs><style>.cls-1{fill:none;stroke:#fbbc29;stroke-miterlimit:10;}.cls-2{fill:#b2b2b2;}.cls-2,.cls-3{stroke-width:0px;}.cls-3{fill:#fff;}</style></defs><g id="Ebene_1-2"><circle class="cls-1" cx="13.58" cy="13.58" r="13.08"/><path class="cls-2" d="M20.51,8.94H6.22c-.21,0-.39.15-.39.34v9.79c0,.19.17.34.39.34h14.29c.21,0,.39-.15.39-.34v-9.79c0-.19-.17-.34-.39-.34Z"/><path class="cls-3" d="M11.82,18.05c.21,0,.39-.15.39-.34v-2.91c0-.19-.17-.34-.39-.34s-.39.15-.39.34v2.91c0,.19.17.34.39.34Z"/><path class="cls-3" d="M8.73,18.05c.21,0,.39-.15.39-.34v-2.91c0-.19-.17-.34-.39-.34s-.39.15-.39.34v2.91c0,.19.17.34.39.34Z"/><path class="cls-3" d="M10.27,18.05c.21,0,.39-.15.39-.34v-3.85c0-.19-.17-.34-.39-.34s-.39.15-.39.34v3.85c0,.19.17.34.39.34Z"/><path class="cls-3" d="M14.91,18.05c.21,0,.39-.15.39-.34v-3.85c0-.19-.17-.34-.39-.34s-.39.15-.39.34v3.85c0,.19.17.34.39.34Z"/><path class="cls-3" d="M13.36,18.05c.21,0,.39-.15.39-.34v-4.79c0-.19-.17-.34-.39-.34s-.39.15-.39.34v4.79c0,.19.17.34.39.34Z"/><path class="cls-3" d="M18,18.05c.21,0,.39-.15.39-.34v-6.67c0-.19-.17-.34-.39-.34s-.39.15-.39.34v6.67c0,.19.17.34.39.34Z"/><path class="cls-3" d="M16.45,18.05c.21,0,.39-.15.39-.34v-5.73c0-.19-.17-.34-.39-.34s-.39.15-.39.34v5.73c0,.19.17.34.39.34Z"/></g></svg>